<svg width="432" height="323" viewBox="0 0 432 323" fill="none" xmlns="http://www.w3.org/2000/svg">
<g clip-path="url(#clip0_17_127)">
<path d="M202.502 311.895C202.491 316.795 157.295 317.213 101.662 320.536C46.0816 323.856 0.85168 316.334 0.862883 311.434C0.874086 306.534 46.352 296.779 101.703 302.792C157.314 308.834 202.513 306.995 202.502 311.895Z" fill="#E6E6E6"/>
<path d="M415.8 1.5214L296.298 1.24816C290.532 1.23497 284.932 3.16933 280.421 6.73326C275.909 10.2972 272.753 15.2786 271.472 20.8587L210.482 286.528C209.817 289.425 209.799 292.433 210.428 295.338C211.058 298.244 212.32 300.978 214.127 303.348C215.934 305.718 218.241 307.668 220.887 309.059C223.533 310.451 226.454 311.252 229.444 311.405L352.279 317.693C358.856 318.03 365.332 315.98 370.498 311.926C375.665 307.872 379.168 302.091 380.355 295.661L415.037 107.811L417.584 108.539L424.219 72.9349L421.597 72.2781L431.278 19.8423C431.693 17.5964 431.603 15.2873 431.016 13.0797C430.428 10.8721 429.357 8.82031 427.879 7.07062C426.4 5.32093 424.551 3.91642 422.464 2.95723C420.376 1.99804 418.1 1.50777 415.8 1.52139L415.8 1.5214Z" fill="#3F3D56"/>
<path d="M312.018 7.01402L298.068 6.98213C294.062 6.97297 290.174 8.32382 287.048 10.8104C283.922 13.297 281.747 16.7698 280.884 20.6523L222.324 284.158C221.986 285.675 221.983 287.247 222.314 288.765C222.645 290.284 223.302 291.714 224.241 292.957C225.179 294.2 226.377 295.228 227.753 295.97C229.128 296.712 230.649 297.15 232.21 297.255L354.643 305.5C358.097 305.733 361.516 304.695 364.248 302.585C366.981 300.475 368.834 297.44 369.456 294.06L419.535 21.6775C419.859 19.9145 419.789 18.1024 419.331 16.369C418.872 14.6357 418.036 13.0233 416.881 11.6457C415.726 10.2681 414.28 9.15889 412.646 8.39629C411.012 7.63368 409.229 7.23629 407.424 7.23217L394.19 7.20191C392.91 7.19898 391.664 7.61518 390.645 8.38606C389.627 9.15695 388.893 10.2395 388.557 11.4662C388.261 12.5491 387.613 13.5048 386.714 14.1854C385.815 14.866 384.715 15.2334 383.584 15.2308L320.762 15.0871C318.547 15.0821 316.417 14.2478 314.796 12.751C313.174 11.2543 312.182 9.20537 312.018 7.01402L312.018 7.01402Z" fill="white"/>
<path d="M180.634 142.322L191.382 163.559L223.632 178.199C227.066 183.989 238.02 184.457 238.825 180.719C239.729 176.526 225.547 169.742 225.547 169.742L198.587 151.554L196.26 135.945L180.634 142.322Z" fill="#A0616A"/>
<path d="M181.582 284.682L179.555 300.487L191.102 301.304L192.334 284.707L181.582 284.682Z" fill="#A0616A"/>
<path d="M183.145 298.123C182.115 297.038 181.165 295.88 180.303 294.658C178.653 292.381 177.158 304.038 177.158 304.038C177.158 304.038 175.554 308.777 175.947 311.149C176.34 313.521 185.499 313.542 187.093 313.151C188.686 312.759 196.65 313.173 196.65 313.173L208.597 313.2C218.961 308.481 208.615 305.296 208.615 305.296C205.43 304.893 194.7 294.988 194.7 294.988L192.321 290.635C190.729 290.236 189.123 296.161 189.123 296.161L183.145 298.123Z" fill="#2F2E41"/>
<path d="M151.715 284.812L149.688 300.616L161.234 301.434L162.467 284.836L151.715 284.812Z" fill="#A0616A"/>
<path d="M153.278 298.253C152.248 297.167 151.298 296.009 150.436 294.788C148.786 292.511 147.291 304.167 147.291 304.167C147.291 304.167 145.688 308.511 146.081 310.883C146.473 313.256 155.633 313.276 157.226 312.885C158.82 312.493 166.783 313.302 166.783 313.302L178.73 313.329C189.094 308.61 178.748 305.425 178.748 305.425C175.563 305.022 164.833 295.117 164.833 295.117L162.454 290.765C160.862 290.366 159.255 296.29 159.255 296.29L153.278 298.253Z" fill="#2F2E41"/>
<path d="M165.09 182.875C163.492 184.847 164.273 191.568 164.273 191.568C164.273 191.568 161.436 213.298 162.626 215.277C163.816 217.256 161.822 218.832 160.621 221.596C159.42 224.36 158.21 231.076 158.21 231.076C151.427 236.593 151.768 261.888 151.768 261.888L149.327 284.41C150.118 286.783 161.267 287.204 162.861 286.812C164.455 286.421 169.315 250.862 169.315 250.862L180.113 230.731C180.113 230.731 179.194 284.478 179.188 286.849C179.183 289.221 189.937 288.06 192.327 288.065C194.716 288.071 194.806 248.549 194.806 248.549L197.219 238.279L210.07 191.277L210.083 185.744L208.098 182.973C208.098 182.973 166.687 180.902 165.09 182.875Z" fill="#2F2E41"/>
<path d="M182.817 93.1989C189.635 93.2145 195.174 87.7419 195.19 80.9756C195.205 74.2093 189.691 68.7114 182.873 68.6958C176.055 68.6802 170.515 74.1528 170.5 80.9191C170.484 87.6855 175.999 93.1833 182.817 93.1989Z" fill="#A0616A"/>
<path d="M189.004 86.6925C186.489 92.2167 187.953 99.9441 192.937 108.438L172.649 98.9067L175.841 96.1475L175.063 88.2415L189.004 86.6925Z" fill="#A0616A"/>
<path d="M188.975 99.3397C191.631 100.915 193.216 103.802 194.122 106.738C195.801 112.173 196.805 117.791 197.115 123.468L198.04 140.463L209.884 185.545C199.51 194.216 193.542 192.226 179.62 185.081C165.699 177.935 164.084 187.416 164.084 187.416C164.084 187.416 162.89 187.019 164.088 185.836C165.285 184.653 164.088 185.836 162.896 184.647C161.704 183.459 162.896 184.647 163.297 183.462C163.697 182.278 163.297 183.067 162.9 182.671C162.503 182.275 164.502 178.723 164.502 178.723L161.384 149.074L157.498 107.172C162.29 101.255 175.841 96.1478 175.841 96.1478L188.166 104.871C192.145 106.461 188.973 100.13 188.973 100.13L188.975 99.3397Z" fill="#6C63FF"/>
<path d="M150.869 132.254L149.222 155.964L169.466 184.862C169.45 191.581 173.031 193.17 173.031 193.17C174.393 191.023 175.596 188.78 176.63 186.459C178.631 182.116 175.454 178.552 175.454 178.552L161.583 149.273L167.589 134.663L150.869 132.254Z" fill="#A0616A"/>
<path d="M157.696 107.37C150.921 109.726 149.668 135.413 149.668 135.413C157.642 131.084 167.183 138.22 167.183 138.22C167.183 138.22 169.19 131.505 171.599 122.816C172.326 120.372 172.418 117.785 171.867 115.296C171.315 112.807 170.138 110.497 168.446 108.58C168.446 108.58 164.471 105.014 157.696 107.37Z" fill="#6C63FF"/>
<path d="M171.487 84.6757C173.061 83.4316 175.2 85.7045 175.2 85.7045L176.483 74.4777C176.483 74.4777 184.339 75.4315 189.37 74.1952C194.402 72.959 195.175 78.7316 195.175 78.7316C195.44 76.4017 195.497 74.0533 195.348 71.7134C195.04 68.9052 190.961 66.0885 183.736 64.2003C176.511 62.3122 172.72 70.4139 172.72 70.4139C167.686 72.8979 169.912 85.9199 171.487 84.6757Z" fill="#2F2E41"/>
<path d="M381.087 191.479C381.326 191.488 381.562 191.413 381.75 191.265C381.938 191.117 382.067 190.908 382.114 190.674L409.91 42.4139C409.937 42.2727 409.932 42.1276 409.896 41.9885C409.86 41.8495 409.794 41.7199 409.702 41.6088C409.61 41.4977 409.495 41.4079 409.365 41.3455C409.235 41.2832 409.092 41.2498 408.948 41.2478L284.031 39.5178L284.02 39.5178C283.794 39.5181 283.576 39.5942 283.399 39.7336C283.223 39.8731 283.099 40.0677 283.048 40.2858L250.352 183.721C250.32 183.861 250.319 184.006 250.35 184.146C250.38 184.287 250.442 184.419 250.529 184.533C250.617 184.648 250.728 184.742 250.856 184.809C250.984 184.876 251.125 184.915 251.27 184.922L381.087 191.479Z" fill="#E6E6E6"/>
<path d="M272.352 200.705C272.24 200.705 272.131 200.742 272.043 200.811C271.955 200.88 271.894 200.977 271.868 201.085L270.703 205.99C270.687 206.059 270.686 206.131 270.7 206.201C270.714 206.271 270.744 206.337 270.786 206.394C270.829 206.452 270.883 206.499 270.946 206.534C271.009 206.568 271.079 206.589 271.15 206.594L336.315 211.341C336.436 211.348 336.555 211.313 336.652 211.24C336.748 211.167 336.814 211.062 336.839 210.944L337.961 205.269C337.975 205.2 337.974 205.129 337.957 205.061C337.941 204.993 337.91 204.929 337.867 204.873C337.824 204.818 337.769 204.772 337.707 204.739C337.644 204.706 337.575 204.687 337.505 204.683L272.382 200.706C272.372 200.705 272.362 200.705 272.352 200.705Z" fill="#E6E6E6"/>
<path d="M351.47 229.61C351.588 229.619 351.704 229.587 351.8 229.519C351.896 229.451 351.964 229.351 351.993 229.238L353.418 223.551C353.436 223.481 353.438 223.408 353.424 223.338C353.41 223.267 353.381 223.201 353.338 223.142C353.295 223.084 353.241 223.036 353.177 223.001C353.114 222.966 353.044 222.945 352.971 222.94L269.753 216.972C269.641 216.963 269.528 216.993 269.435 217.057C269.341 217.121 269.273 217.214 269.242 217.322L267.763 222.236C267.742 222.306 267.736 222.38 267.748 222.453C267.759 222.525 267.787 222.594 267.828 222.655C267.87 222.716 267.925 222.766 267.989 222.803C268.053 222.84 268.124 222.862 268.198 222.868L351.47 229.61Z" fill="#E6E6E6"/>
<path d="M346.959 247.837C347.076 247.847 347.193 247.815 347.289 247.746C347.385 247.678 347.453 247.578 347.481 247.465L348.907 241.778C348.924 241.708 348.926 241.636 348.912 241.565C348.898 241.494 348.869 241.428 348.826 241.37C348.784 241.311 348.729 241.263 348.666 241.228C348.602 241.193 348.532 241.172 348.46 241.167L265.242 235.199C265.129 235.19 265.016 235.22 264.923 235.284C264.83 235.348 264.762 235.442 264.73 235.55L263.251 240.463C263.23 240.533 263.225 240.607 263.236 240.68C263.248 240.752 263.275 240.822 263.317 240.882C263.358 240.943 263.413 240.993 263.477 241.03C263.541 241.067 263.612 241.089 263.686 241.095L346.959 247.837Z" fill="#E6E6E6"/>
<path d="M308.554 279.036C308.672 279.048 308.791 279.018 308.889 278.95C308.986 278.881 309.055 278.78 309.083 278.665L312.096 266.817C312.114 266.748 312.116 266.676 312.103 266.606C312.09 266.535 312.061 266.469 312.02 266.411C311.978 266.352 311.924 266.304 311.861 266.268C311.799 266.233 311.729 266.211 311.658 266.205L260.554 261.821C260.435 261.813 260.317 261.847 260.22 261.917C260.124 261.987 260.055 262.089 260.027 262.204L257.454 273.576C257.438 273.645 257.438 273.715 257.452 273.784C257.466 273.852 257.495 273.917 257.536 273.974C257.577 274.03 257.63 274.077 257.692 274.112C257.753 274.147 257.821 274.168 257.891 274.175L308.554 279.036Z" fill="#6C63FF"/>
</g>
<defs>
<clipPath id="clip0_17_127">
<rect width="430" height="320.617" fill="white" transform="translate(1.57367 0.57373) rotate(0.131004)"/>
</clipPath>
</defs>
</svg>
