<svg width="101" height="6" viewBox="0 0 101 6" fill="none" xmlns="http://www.w3.org/2000/svg">
<path d="M24.821 0.222595H2.7047C1.59339 0.222595 0.686966 1.30561 0.686966 2.63344C0.686966 3.97069 1.59338 5.05372 2.7047 5.05372H24.821C25.9323 5.05372 26.8387 3.9707 26.8387 2.63344C26.8387 1.30562 25.9323 0.222595 24.821 0.222595Z" fill="#E6E6E6"/>
<path d="M61.8653 0.222595H39.749C38.6377 0.222595 37.7312 1.30561 37.7312 2.63344C37.7312 3.97069 38.6377 5.05372 39.749 5.05372H61.8653C62.9766 5.05372 63.883 3.9707 63.883 2.63344C63.883 1.30562 62.9766 0.222595 61.8653 0.222595Z" fill="#E6E6E6"/>
<path d="M98.9095 0.222595H76.7933C75.682 0.222595 74.7755 1.30561 74.7755 2.63344C74.7755 3.97069 75.682 5.05372 76.7933 5.05372H98.9095C100.021 5.05372 100.927 3.9707 100.927 2.63344C100.927 1.30562 100.021 0.222595 98.9095 0.222595Z" fill="#E6E6E6"/>
</svg>
